<svg width="44" height="39" viewBox="0 0 44 39" fill="none" xmlns="http://www.w3.org/2000/svg">
<path d="M37.8641 11.8723C37.716 11.6886 37.0648 11.7249 36.9026 11.7408C38.2167 12.8089 37.0249 12.6661 36.4419 11.9902C36.3549 11.8882 37.3234 13.5959 36.5759 12.8407C36.8204 13.2557 37.4433 16.2175 37.2035 18.7597C36.9567 18.889 36.8015 18.4717 36.5594 18.4899V20.1522C36.5594 20.379 37.1871 21.683 37.1213 21.7374L36.3196 21.3496C35.9999 22.5175 36.235 23.5335 36.4771 24.6765C36.2867 24.6312 35.9388 24.0302 35.7554 24.1708C35.6473 24.2502 35.116 25.7061 35.116 25.8739V27.4614C34.928 27.5091 34.982 27.4183 34.9327 27.3616C34.8598 27.2823 34.4531 26.6495 34.3943 26.6858C34.084 27.2891 33.6162 27.7857 33.3365 28.4117C33.132 28.872 32.9651 29.8404 32.7488 30.1647C32.73 30.1942 32.6642 30.2667 32.6312 30.2441L32.2692 29.3936C31.4135 30.0853 30.9575 30.7294 30.4756 31.6864C30.4145 31.8066 30.1958 32.6094 30.0548 32.2262C29.9819 32.0334 29.9819 31.7839 29.9114 31.5889C29.8785 31.505 29.949 31.4551 29.7868 31.4868C28.8183 31.9926 28.1554 32.8566 27.4572 33.6481C27.3961 33.4077 27.4149 33.1514 27.3396 32.9088C27.3114 32.8181 27.3937 32.7704 27.2268 32.8045C26.8601 32.8838 26.2512 33.1333 25.9315 33.3351C25.6142 33.537 24.8172 34.3511 24.6503 34.4192C24.4787 34.4895 24.5422 34.3194 24.5516 34.2468C24.561 34.147 24.7021 33.5733 24.5704 33.5687C23.7664 33.6481 23.0894 33.8023 22.3654 34.147C22.2854 34.1856 21.1806 34.8863 21.244 34.6913L21.646 33.9565C20.8585 34.0291 20.0663 33.8136 19.2811 33.8794C18.5524 33.9406 17.8801 34.308 17.1537 34.3421L17.7954 33.5687L14.8687 32.6389H12.9857C12.9387 32.4597 13.021 32.5119 13.0868 32.462C13.1644 32.4031 13.8508 32.0334 13.7874 31.9449C13.2514 31.7023 12.8517 31.3326 12.2923 31.1036C11.6952 30.8609 11.0205 30.8133 10.501 30.4368C10.6937 30.303 10.9688 30.3076 11.185 30.2441C11.2744 30.2191 11.3261 30.2962 11.3026 30.1284C10.5339 29.2281 9.64057 28.711 8.57802 28.1939C8.77783 28.0624 9.04112 28.1078 9.25739 28.0783C9.34437 28.0647 9.42665 28.1146 9.37728 27.9649C9.32792 27.8129 9.04112 27.4977 8.93533 27.3072C8.61328 26.7221 8.24185 25.6971 7.88924 25.2231C7.58598 24.8149 6.89485 24.4634 6.5728 24.0166C6.55634 23.8148 6.60571 23.9372 6.71384 23.9599C6.93247 24.0007 7.14169 24.0869 7.37441 24.0574C5.59017 18.3402 8.00207 11.8837 13.5476 9.08968C12.5744 8.76085 11.5729 8.96495 10.5809 9.01484C11.8997 8.20749 13.383 8.12812 14.8523 8.57262L15.5528 7.89226C13.8649 7.56796 12.2264 6.90802 10.9029 5.83987C11.9279 5.79451 13.8602 5.55639 14.6713 4.91006C14.8217 4.78986 14.6642 4.76038 14.5561 4.71276C13.0092 4.05055 10.2988 3.99158 8.69555 4.48144C8.19249 4.63565 7.60949 4.91459 7.21456 5.25931H8.61798C8.8366 5.25931 9.56064 5.50196 9.70169 5.72194C7.3368 6.41363 4.81911 7.05997 3.2864 9.08742C3.33811 9.18947 3.50502 9.09422 3.5826 9.06474C4.22436 8.82208 4.68276 8.60663 5.41151 8.66333C5.5314 8.6724 5.64424 8.6021 5.61132 8.77899C3.84118 10.3529 1.99817 11.6319 0.973225 13.8181C0.83923 14.0993 0.641764 14.4645 0.681728 14.7729C1.22946 14.2377 1.86652 13.7864 2.60702 13.5369C2.65404 13.9678 2.33433 14.4622 2.12746 14.8523C1.41047 16.2016 0 18.0204 0 19.6079V21.1954L0.277393 20.574C0.613555 20.0365 1.01554 19.4424 1.68316 19.2632C1.07431 22.2318 0.926209 24.9283 2.2309 27.7449C2.28496 27.8606 2.36489 28.1168 2.48478 28.1577V26.8809C2.48478 26.7811 2.67284 26.1756 2.72456 26.0282C2.75277 25.942 2.76923 25.7492 2.88441 25.7583C4.03395 29.2145 5.11766 32.8022 8.3782 34.9634L7.62595 32.8271L7.65651 32.4892C7.87748 32.8135 8.20189 33.0108 8.46048 33.2603C10.4775 35.2038 12.17 37.3333 15.0356 38.211C15.1978 38.0545 14.9557 38.0568 14.8805 37.9751C14.4385 37.4875 13.9096 36.7822 13.9096 36.1246C16.613 37.551 19.2929 39.1884 22.5299 38.9843L21.1289 38.1316L20.5247 37.4399C23.6136 37.4762 27.0411 38.4514 29.7445 36.5124C29.0322 36.6938 28.2941 36.5441 27.5818 36.433C27.5536 36.4081 27.6241 36.3468 27.6617 36.3196C28.0801 36.0044 30.1841 35.4374 30.8658 35.1562C32.6383 34.426 34.3849 33.3714 35.5979 31.9109C35.5674 31.8157 35.4263 31.8883 35.3582 31.9109C34.9374 32.047 34.5612 32.1989 34.1052 32.2488C34.0159 32.2579 33.7408 32.3237 33.7549 32.1831C35.5697 31.1557 37.3187 29.6703 38.1626 27.7721C37.7278 28.1078 37.2505 28.6611 36.6417 28.584C37.7019 27.4728 38.6681 26.1506 39.2087 24.7174C39.3874 24.2456 39.6107 23.6991 39.5684 23.207L38.6469 24.0574C39.0442 23.0255 39.5214 22.1025 39.6789 20.9913C40.1702 17.5283 39.338 15.011 37.8641 11.8701V11.8723Z" fill="#0766AD"/>
<path d="M14.2905 3.89161C15.6868 4.31116 17.2948 4.29982 18.4396 5.2251C17.6286 5.13212 16.9163 5.05047 16.0959 5.20695C14.9792 5.42013 13.9378 6.23202 12.746 6.27057L15.1508 7.15956L17.236 7.50881C16.0042 8.34111 14.9557 9.39338 14.0295 10.5228C14.502 10.364 14.9745 10.1894 15.4682 10.0964C17.4287 9.72675 20.4236 9.83334 22.2314 10.6929C22.6357 10.8856 24.1238 11.8154 24.1967 12.2055C24.3001 12.7543 23.6066 12.845 23.3269 13.1535C24.0204 13.2306 24.6104 13.0491 25.2498 12.845C25.2945 13.1172 25.1017 13.3145 24.9301 13.5027C26.0914 13.4188 27.0035 12.5275 27.335 11.4526C26.933 11.5524 26.6321 11.6658 26.2136 11.5274L26.4534 10.5228C25.6659 11.2349 25.4308 11.3437 24.5704 10.677C23.4562 9.81293 23.2799 9.18701 21.7589 8.74705C21.6461 8.7153 21.6178 8.79467 21.6414 8.59284C23.4585 7.46345 25.3015 8.29121 27.0975 8.94208L26.933 9.7517C27.5089 9.79932 27.8004 8.93074 28.3387 9.12578C28.7666 9.28226 28.6726 9.54533 28.736 9.90591C29.0158 9.76531 29.3378 9.16887 29.5329 9.05094C29.7069 8.94662 30.1465 8.9058 30.4004 8.80601C31.7615 8.27307 32.1 6.59714 31.249 5.47456C29.8573 3.63761 26.7096 4.37239 24.9701 3.02303C24.3753 2.56266 23.8323 1.85282 23.8041 1.0931C23.6607 1.09083 23.7147 1.43327 23.7265 1.51718C24.1708 5.29313 29.855 3.7442 30.9434 6.23428C31.336 7.13235 30.8987 8.06443 29.9396 8.36378C29.9749 7.87393 30.2311 7.50881 29.855 7.05297C29.2861 6.35902 28.5903 6.88289 27.9415 6.81032C27.6335 6.7763 25.7811 6.17986 25.6565 5.99616C25.5695 5.8669 25.5766 5.66959 25.5037 5.52445C24.4176 3.37001 22.1374 3.42217 20.0358 2.83253C18.2821 2.33134 16.566 1.4174 15.4329 0.00226784C15.3154 0.850439 15.8255 1.64191 16.3921 2.24743L17.3982 3.01622C14.6196 2.76676 11.9256 1.83014 9.86392 0C10.28 2.08414 12.344 3.30197 14.2928 3.88934L14.2905 3.89161ZM24.4106 5.72856C24.4693 5.78072 24.7867 6.03925 24.6927 6.11182C24.199 6.08461 23.7853 6.39757 23.3081 6.17079C22.939 5.99616 22.8144 5.51992 22.5605 5.26819C22.4218 5.12985 22.2055 5.10263 22.128 4.95296C22.9249 4.94162 23.8111 5.20922 24.4106 5.72856Z" fill="#0766AD"/>
<path d="M43.5953 3.0073C43.7458 2.93247 43.8845 2.99143 43.9009 3.15925C43.9197 3.35655 43.7693 3.49489 43.6188 3.60601C43.3344 3.81692 43.0476 4.01196 42.7749 4.24101C42.474 4.49501 42.1778 4.75127 41.8839 5.01207C41.7734 5.11186 41.6606 5.21164 41.5501 5.31143C40.5393 6.22537 39.5708 7.18239 38.6469 8.17797C36.7968 10.1669 35.1278 12.3122 33.6585 14.5778C32.0294 17.0951 30.5814 19.7326 29.1521 22.361C28.515 23.5335 27.8874 24.7128 27.2644 25.8943C26.7942 26.7878 26.3264 27.983 25.814 28.7926C25.7011 28.9718 25.5483 29.1509 25.3226 29.0058L15.0615 20.7735C14.9463 20.5354 15.1908 20.329 15.3365 20.1499C16.4061 18.8618 17.9529 17.2176 19.1565 16.036C19.4269 15.7707 19.582 15.5212 19.937 15.8795L24.0344 20.3268C29.3707 14.4735 36.3431 6.56327 43.5906 3.0073H43.5953Z" fill="#DA5C53"/>
</svg>
